<svg fill="none" height="512" viewBox="0 0 128 128" width="512" xmlns="http://www.w3.org/2000/svg"><g fill="#000"><path d="m57.3469 45.9797c.5358 2.1432 2.7075 3.4462 4.8507 2.9104s3.4462-2.7075 2.9104-4.8507l-1.975-7.9002c-.5358-2.1432-2.7076-3.4462-4.8507-2.9104-2.1432.5358-3.4463 2.7075-2.9105 4.8507z"/><path clip-rule="evenodd" d="m70 65c0 5.5228-4.4772 10-10 10s-10-4.4772-10-10 4.4772-10 10-10 10 4.4772 10 10zm-8 0c0 1.1046-.8954 2-2 2s-2-.8954-2-2 .8954-2 2-2 2 .8954 2 2z" fill-rule="evenodd"/><path d="m42.5293 57.8753c2.124.6076 4.3383-.6217 4.9459-2.7456.6075-2.124-.6217-4.3383-2.7457-4.9459l-7.8292-2.2396c-2.124-.6076-4.3383.6216-4.9459 2.7456-.6076 2.1239.6217 4.3383 2.7456 4.9458z"/><path d="m45.5174 70.9996c1.5356 1.5881 1.493 4.1204-.0952 5.656l-5.8542 5.6606c-1.5881 1.5356-4.1204 1.493-5.656-.0952-1.5356-1.5881-1.4931-4.1204.0951-5.656l5.8542-5.6606c1.5882-1.5356 4.1205-1.493 5.6561.0952z"/><path clip-rule="evenodd" d="m106 61c2.761 0 5.028-2.2448 4.734-4.9906-.476-4.4594-1.589-8.8363-3.312-12.9955-2.362-5.7023-5.824-10.8836-10.188-15.2479-4.3643-4.3644-9.5456-7.8264-15.2479-10.1883-4.1591-1.7228-8.5361-2.8358-12.9955-3.312-2.7458-.2932-4.9906 1.9729-4.9906 4.7343v3.1836c-1.317-.1215-2.6513-.1836-4-.1836-23.7482 0-43 19.2518-43 43s19.2518 43 43 43c3.8666 0 7.614-.51 11.1785-1.467 4.535 4.609 10.8445 7.467 17.8215 7.467 13.807 0 25-11.193 25-25 0-8.6707-4.414-16.3103-11.118-20.7945.078-1.0583.118-2.1273.118-3.2055 0-1.3487-.062-2.683-.184-4zm-11.0011 3.7244c-.0097-1.2584-.0858-2.501-.225-3.7244h-6.9048c-2.4902 0-4.5027-1.8514-5.4043-4.1694l-1.8461 1.785c-1.5882 1.5356-4.1205 1.493-5.6561-.0952-1.5356-1.5881-1.493-4.1204.0952-5.656l3.7201-3.5971c-.4465-.5624-.9257-1.0999-1.4354-1.6097-1.7522-1.7522-3.8323-3.1421-6.1216-4.0903-.744-.3082-1.5053-.5678-2.2792-.7778-2.665-.7232-4.9417-2.8972-4.9417-5.6586v-6.9048c-1.3127-.1494-2.6474-.2261-4-.2261-19.33 0-35 15.67-35 35s15.67 35 35 35c2.1427 0 4.2405-.1926 6.277-.5613-.7153-1.5544-1.2758-3.1948-1.6617-4.9014-.5298.8444-1.3742 1.4931-2.4177 1.7539-2.1431.5358-4.3149-.7672-4.8507-2.9104l-1.975-7.9002c-.5358-2.1432.7672-4.3149 2.9104-4.8507s4.3149.7673 4.8507 2.9104l.9273 3.7093c.8985-12.9905 11.721-23.2496 24.9397-23.2496 2.0679 0 4.0771.2511 5.9989.7244zm-5.3484-11.7244h12.5205c-.496-2.364-1.211-4.6824-2.14-6.9247-1.9596-4.7316-4.8324-9.031-8.4538-12.6525-3.6215-3.6214-7.9209-6.4942-12.6525-8.4541-2.2423-.9288-4.5607-1.6439-6.9247-2.1394v12.5202c.7715.2407 1.5331.5164 2.2823.8267 3.26 1.3503 6.222 3.3295 8.717 5.8245s4.4742 5.457 5.8245 8.717c.3103.7492.586 1.5108.8267 2.2823zm16.3495 36c0 9.3888-7.6112 17-17 17s-17-7.6112-17-17 7.6112-17 17-17 17 7.6112 17 17z" fill-rule="evenodd"/></g><path d="m106 61c2.761 0 5.028-2.2448 4.734-4.9906-.476-4.4594-1.589-8.8364-3.312-12.9955-2.362-5.7023-5.824-10.8836-10.188-15.2479-4.3643-4.3644-9.5456-7.8264-15.2479-10.1883-4.1592-1.7228-8.5361-2.8358-12.9955-3.312-2.7458-.2932-4.9906 1.9729-4.9906 4.7343v18.1309c0 2.7614 2.2767 4.9354 4.9417 5.6586.7739.21 1.5352.4696 2.2792.7778 2.2893.9482 4.3694 2.3381 6.1215 4.0903 1.7522 1.7521 3.1421 3.8322 4.0903 6.1215.3082.744.5678 1.5053.7778 2.2792.7232 2.665 2.8972 4.9417 5.6586 4.9417z" fill="#ce3b3b"/><path clip-rule="evenodd" d="m89 114c13.807 0 25-11.193 25-25 0-13.8071-11.193-25-25-25-13.8071 0-25 11.1929-25 25 0 13.807 11.1929 25 25 25zm0-40c2.2091 0 4 1.7909 4 4v10.5c0 2.2091-1.7909 4-4 4s-4-1.7909-4-4v-10.5c0-2.2091 1.7909-4 4-4zm4 26c0 2.209-1.7909 4-4 4s-4-1.791-4-4c0-2.2091 1.7909-4 4-4s4 1.7909 4 4z" fill="#ce3b3b" fill-rule="evenodd"/></svg>