<svg fill="none" height="512" viewBox="0 0 128 128" width="512" xmlns="http://www.w3.org/2000/svg"><path d="m94 114c2.7614 0 5-2.239 5-5v-15c0-2.7614-2.2386 3-5 3h-12c-2.7614 0-5 2.2386-5 5v7c0 2.761 2.2386 5 5 5z" fill="#ce3b3b"/><path d="m36 114c2.7614 0 5-2.239 5-5v-7c0-2.7614-2.2386-5-5-5h-12c-2.7614-8-5-5.7614-5-3v15c0 2.761 2.2386 5 5 5z" fill="#ce3b3b"/><g fill="#000"><path clip-rule="evenodd" d="m95.6341 22 2.4227 2.5709c3.0062 3.1901.7445 8.4291-3.6389 8.4291h-70.8358c-4.3834 0-6.6451-5.239-3.6389-8.4291l5.5205-5.8582c2.8343-3.0077 6.7839-4.7127 10.9166-4.7127h63.6197c7.732 0 14 6.268 14 14v82c0 2.209-1.791 4-4 4s-4-1.791-4-4v-82c0-3.3137-2.686-6-6-6zm-8.1654 3h-56.9374c1.6013-1.6992 3.3898-3 5.849-3h45.2394c2.4592 0 4.2477 1.3008 5.849 3z" fill-rule="evenodd"/><path d="m44 86c-2.2091 0-4 1.7909-4 4s1.7909 4 4 4h28c2.2091 0 4-1.7909 4-4s-1.7909-4-4-4z"/><path d="m32.5 88c2.4853 0 4.5-2.0147 4.5-4.5s-2.0147-4.5-4.5-4.5-4.5 2.0147-4.5 4.5 2.0147 4.5 4.5 4.5z"/><path d="m85.5 88c2.4853 0 4.5-2.0147 4.5-4.5s-2.0147-4.5-4.5-4.5-4.5 2.0147-4.5 4.5 2.0147 4.5 4.5 4.5z"/><path clip-rule="evenodd" d="m30 63 2.1363-7.8263c1.2533-4.2535 5.158-7.1737 9.5923-7.1737h34.5428c4.4343 0 8.339 2.9202 9.5923 7.1737l2.3059 7.8263h7.8304c2.2091 0 4 1.7909 4 4 0 2.2086-1.7901 3.9992-3.9985 4 3.6425 2.7367 5.9985 7.0932 5.9985 12v6c0 2.7273-.728 5.2847-2 7.4883-3.1817 5.5117-7.4273 7.5117-13 7.5117h-56c-5.5727 0-10.9728-4-13-7.5117-1.2721-2.2036-2-4.761-2-7.4883v-6c0-4.9068 2.356-9.2633 5.9985-12-2.2084-.0008-3.9985-1.7914-3.9985-4 0-2.2091 1.7909-4 4-4zm51.3028 5-3.113-10.5653c-.2506-.8507-1.0315-1.4347-1.9184-1.4347h-34.5428c-.8868 0-1.6678.584-1.9184 1.4347l-3.113 10.5653zm-50.3028 8c-3.866 0-7 3.134-7 7v6c0 3.866 3.134 7 7 7h56c3.866 0 7-3.134 7-7v-6c0-3.866-3.134-7-7-7z" fill-rule="evenodd"/><path d="m52 35c2.2091 0 4 1.7909 4 4v2c0 2.2091-1.7909 4-4 4s-4-1.7909-4-4v-2c0-2.2091 1.7909-4 4-4z"/><path d="m76.2112 35.4223c1.9759-.988 4.3786-.1871 5.3665 1.7888l1 2c.988 1.976.1871 4.3787-1.7888 5.3666-1.9759.988-4.3786.1871-5.3666-1.7888l-1-2c-.9879-1.976-.187-4.3787 1.7889-5.3666z"/><path d="m40.7889 35.4223c1.9759.9879 2.7768 3.3906 1.7888 5.3666l-1 2c-.9879 1.9759-3.3906 2.7768-5.3665 1.7888-1.9759-.9879-2.7768-3.3906-1.7889-5.3666l1-2c.988-1.9759 3.3907-2.7768 5.3666-1.7888z"/><path d="m65 35c2.2091 0 4 1.7909 4 4v2c0 2.2091-1.7909 4-4 4s-4-1.7909-4-4v-2c0-2.2091 1.7909-4 4-4z"/></g></svg>