<svg fill="none" height="512" viewBox="0 0 128 128" width="512" xmlns="http://www.w3.org/2000/svg"><g fill="#000"><path d="m91.9535 88.4122c-1.2998 1.3589-3.1669 2.8063-5.1423 2.8177l-12.8112.0739v-7.8038h10.7271c.5458 0 1.068-.2231 1.4453-.6176l5.2729-5.5125c.356-.3722.5547-.8674.5547-1.3825v-5.9874c0-4.9706 4.0294-9 9-9h5v-6h-5c-4.9706 0-9-4.0294-9-9v-5.5h-4.8605c-3.5527 0-6.9506-1.454-9.4036-4.0238l-6.6591-6.9762h-15.1536l-6.6591 6.9762c-2.453 2.5698-5.8509 4.0238-9.4036 4.0238h-5.8605v35.2327c0 .5452.2226 1.0667.6162 1.444l6.018 5.7673c.3724.3568.8682.556 1.3839.556h9.9819v7.9308l-11.5123.0664c-2.053.0118-3.9781-1.4255-5.3887-2.7773l-6.0181-5.7673c-1.9681-1.8861-3.0809-4.494-3.0809-7.2199v-12.7327h-4v13c0 2.2091-1.7909 4-4 4s-4-1.7909-4-4v-33.5c0-2.2091 1.7909-4 4-4s4 1.7909 4 4v12.5h4v-17.5c0-2.7614 2.2386-5 5-5h8.8605c1.3664 0 2.6733-.5592 3.6168-1.5476l7.5454-7.9048c.9435-.9884 2.2504-1.5476 3.6168-1.5476h17.721c1.3664 0 2.6733.5592 3.6168 1.5476l7.5454 7.9048c.9435.9884 2.2504 1.5476 3.6168 1.5476h7.8605c2.7614 0 5 2.2386 5 5v8.5c0 .5523.448 1 1 1h5v-1c0-2.2091 1.791-4 4-4s4 1.7909 4 4v24.0757c0 2.2092-1.791 4-4 4s-4-1.7908-4-4v-1.0757h-5c-.552 0-1 .4477-1 1v5.9874c0 2.5753-.9935 5.0513-2.7736 6.9123z"/><path d="m60 35c-2.2091 0-4 1.7909-4 4s1.7909 4 4 4h8c2.2091 0 4-1.7909 4-4s-1.7909-4-4-4z"/><path d="m42.5 51c0-2.2091 1.7909-4 4-4h34c2.2091 0 4 1.7909 4 4s-1.7909 4-4 4h-34c-2.2091 0-4-1.7909-4-4z"/></g><path clip-rule="evenodd" d="m68.3301 61.5c-1.9245-3.3333-6.7357-3.3333-8.6602 0l-19.9186 34.5c-1.9245 3.3333.4811 7.5 4.3301 7.5h39.8372c3.849 0 6.2546-4.1667 4.3301-7.5zm-4.3301 10.5c2.2091 0 4 1.7909 4 4v8.5c0 2.2091-1.7909 4-4 4s-4-1.7909-4-4v-8.5c0-2.2091 1.7909-4 4-4zm4 23c0 2.2091-1.7909 4-4 4s-4-1.7909-4-4 1.7909-4 4-4 4 1.7909 4 4z" fill="#ce3b3b" fill-rule="evenodd"/></svg>