<svg fill="none" height="512" viewBox="0 0 128 128" width="512" xmlns="http://www.w3.org/2000/svg"><g clip-rule="evenodd" fill-rule="evenodd"><path d="m90.9381 63.926c12.9019-.9892 23.0619-11.7711 23.0619-24.926 0-13.8071-11.193-25-25-25-7.242 0-13.7648 3.0793-18.3305 8h-40.5819c-8.885 0-16.0876 20.5949-16.0876 46s7.2026 46 16.0876 46h44.9124c8.8366 0 16-20.5949 16-46 0-1.3729-.0209-2.7317-.0619-4.074zm15.0619-24.926c0 9.3888-7.6112 17-17 17s-17-7.6112-17-17 7.6112-17 17-17 17 7.6112 17 17zm-40.331-9c-.2905.7525-.5456 1.5226-.7633 2.3082-3.6038 8.4346-5.9057 21.2903-5.9057 35.6918 0 15.7864 2.766 29.7155 6.9806 38h-14.2196c-1.6566-1.381-2.6537-3.671-3.4783-5.592l5.2561-4.317c1.7071-1.4021 1.9544-3.9226.5522-5.6298-1.4021-1.7071-3.9227-1.9544-5.6298-.5522l-2.822 2.3177c-.6868-2.8192-1.2648-5.9388-1.7031-9.2975l7.1999-4.5472c1.8678-1.1797 2.4256-3.6502 1.246-5.518-1.1797-1.8678-3.6501-2.4256-5.5179-1.246l-3.72 2.3495c-.0946-1.941-.1441-3.9331-.1441-5.9675 0-1.2738.0194-2.531.0571-3.7695l8.0009-4.8005c1.8943-1.1366 2.5086-3.5937 1.372-5.488s-3.5937-2.5086-5.488-1.372l-3.1796 1.9078c.3714-3.1864.8675-6.1731 1.4635-8.9106l10.4822-4.9502c1.9976-.9434 2.8522-3.3275 1.9088-5.3251-.9433-1.9976-3.3274-2.8522-5.325-1.9089l-3.8355 1.8113c.7965-1.7924 1.7534-3.9016 3.3046-5.1943zm2.5986 22.9748c.8941 1.3239 1.9117 2.5575 3.0363 3.6844.4408 3.4272.6961 7.2543.6961 11.3408 0 8.1623-1.0183 15.2892-2.5 20.2632-1.4817-4.974-2.5-12.1009-2.5-20.2632 0-5.6211.483-10.7512 1.2676-15.0252zm11.5746 9.2947c.1037 1.8612.1578 3.776.1578 5.7305 0 15.4687-3.3864 28.4515-7.9564 32.025 3.2285 7.895 4.0971 5.398 6.7059-2.1026l.0082-.0236c2.5306-7.2755 4.2423-17.8461 4.2423-29.8988 0-1.6102-.0305-3.1939-.0895-4.7469-1.0507-.2629-2.075-.5924-3.0683-.9836zm-37.766-32.2695h-11.4094c-2.4091 2.0723-3.3872 5.2078-4.4034 8.1141-2.5429 7.2711-4.2634 17.837-4.2634 29.8859 0 10.045.9683 20.4615 4.3029 29.9988.9428 2.6962 2.1236 6.0742 4.3639 8.0012h11.4094c-.6856-1.329-1.3334-2.804-1.9378-4.409l-9.0955-5.1025c-1.9267-1.0809-2.6123-3.519-1.5314-5.4456 1.0809-1.9267 3.519-2.6123 5.4456-1.5314l2.1563 1.2097c-.4608-2.2963-.8539-4.7161-1.1717-7.2375l-8.0776-5.1017c-1.8678-1.1797-2.4257-3.6502-1.246-5.518 1.1796-1.8678 3.6501-2.4256 5.5179-1.246l2.9787 1.8813c-.0757-1.8031-.1147-3.6383-.1147-5.4993 0-1.2469.0175-2.4823.0518-3.7041l-8.1098-4.8659c-1.8943-1.1366-2.5086-3.5937-1.372-5.488s3.5937-2.5086 5.488-1.372l4.567 2.7402c.3693-3.6573.8943-7.1281 1.5532-10.3512l-6.5226-4.718c-1.7899-1.2948-2.1914-3.7954-.8966-5.5853 1.2947-1.79 3.7954-2.1914 5.5853-.8967l4.0039 2.8962c.8186-2.4924 1.7335-4.7267 2.728-6.6552z" fill="#000"/><path d="m89 64c13.807 0 25-11.1929 25-25s-11.193-25-25-25c-13.8071 0-25 11.1929-25 25s11.1929 25 25 25zm0-40c2.2091 0 4 1.7909 4 4v10.5c0 2.2091-1.7909 4-4 4s-4-1.7909-4-4v-10.5c0-2.2091 1.7909-4 4-4zm4 26c0 2.2091-1.7909 4-4 4s-4-1.7909-4-4 1.7909-4 4-4 4 1.7909 4 4z" fill="#ce3b3b"/></g></svg>