<svg fill="none" height="512" viewBox="0 0 128 128" width="512" xmlns="http://www.w3.org/2000/svg"><path clip-rule="evenodd" d="m41.4158 41.2107v12.3174c0 .5523.4477 1 1 1h11.8763c.5523 0 1-.4477 1-1v-23.3202c0-6.19 5.018-11.2079 11.2079-11.2079s11.2079 5.0179 11.2079 11.2079v23.3202c0 .5523.4477 1 1 1h11.8764c.5523 0 1-.4477 1-1v-23.3202c0-6.19 5.0179-11.2079 11.2077-11.2079 6.19 0 11.208 5.0179 11.208 11.2079v72.5841c0 6.19-5.018 11.208-11.208 11.208-6.1898 0-11.2077-5.018-11.2077-11.208v-23.3201c0-.5523-.4477-1-1-1h-11.8764c-.5523 0-1 .4477-1 1v23.3201c0 6.19-5.018 11.208-11.2079 11.208s-11.2079-5.018-11.2079-11.208v-23.3201c0-.5523-.4477-1-1-1h-11.8763c-.5523 0-1 .4477-1 1v23.3201c0 6.19-5.018 11.208-11.2079 11.208s-11.2079-5.018-11.2079-11.208v-35.2668-.0252-.0252-25.8558c-3.0792-2.9162-5-7.0433-5-11.619 0-8.8366 7.1634-16 16-16s16 7.1634 16 16c0 4.3661-1.7488 8.3238-4.5842 11.2107zm-14.4158 4.5085c.9718.1843 1.9746.2808 3 .2808 1.1723 0 2.3152-.1261 3.4158-.3654v7.8935c0 4.9705 4.0294 9 9 9h11.8763c4.9706 0 9-4.0295 9-9v-23.3202c0-1.7717 1.4363-3.2079 3.2079-3.2079 1.7717 0 3.2079 1.4362 3.2079 3.2079v23.3202c0 4.9705 4.0294 9 9 9h11.8764c4.9705 0 9-4.0295 9-9v-23.3202c0-1.7717 1.4357-3.2079 3.2077-3.2079s3.208 1.4362 3.208 3.2079v72.5841c0 1.772-1.436 3.208-3.208 3.208s-3.2077-1.436-3.2077-3.208v-23.3201c0-4.9706-4.0295-9-9-9h-11.8764c-4.9706 0-9 4.0295-9 9v23.3201c0 1.772-1.4362 3.208-3.2079 3.208-1.7716 0-3.2079-1.436-3.2079-3.208v-23.3201c0-4.9706-4.0294-9-9-9h-11.8763c-4.9706 0-9 4.0294-9 9v23.3201c0 1.772-1.4362 3.208-3.2079 3.208s-3.2079-1.436-3.2079-3.208v-35.2758-.009-.0072-.0072-.009zm11-15.7192c0-4.4183-3.5817-8-8-8s-8 3.5817-8 8 3.5817 8 8 8 8-3.5817 8-8z" fill="#000" fill-rule="evenodd"/><path d="m46 30c0-8.8366-7.1634-16-16-16s-16 7.1634-16 16 7.1634 16 16 16 16-7.1634 16-16z" fill="#ce3b3b"/></svg>